<svg xmlns="http://www.w3.org/2000/svg" width="59.357" height="36.008" viewBox="0 0 59.357 36.008"><defs><style>.a{fill:#9c115e;}</style></defs><path class="a" d="M55.185,100.486H14.113a.871.871,0,0,0,0,1.743H55.185a2.432,2.432,0,0,1,2.429,2.429v18.553a2.432,2.432,0,0,1-2.429,2.429H53.1v-5.677a.871.871,0,0,0-.871-.871H7.13a.871.871,0,0,0-.871.871v5.677H4.172a2.432,2.432,0,0,1-2.429-2.429V104.658a2.432,2.432,0,0,1,2.429-2.429h6.456a.871.871,0,0,0,0-1.743H4.172A4.177,4.177,0,0,0,0,104.658v18.553a4.177,4.177,0,0,0,4.172,4.172h9.07a.871.871,0,1,0,0-1.743H8v-1.532H42.63a.871.871,0,1,0,0-1.743H8v-1.532H51.356v1.532H46.115a.871.871,0,1,0,0,1.743h5.241v1.532H16.728a.871.871,0,1,0,0,1.743H55.185a4.177,4.177,0,0,0,4.172-4.172V104.658A4.177,4.177,0,0,0,55.185,100.486Z" transform="translate(0 -100.486)"/><path class="a" d="M423.308,148.21a.871.871,0,1,0,0-1.743h-2.577a.871.871,0,0,0,0,1.743Z" transform="translate(-371.081 -141.125)"/><path class="a" d="M261.047,148.21a.871.871,0,0,0,0-1.743H244.554a.871.871,0,0,0,0,1.743Z" transform="translate(-215.372 -141.125)"/><path class="a" d="M113.063,352.064a.871.871,0,0,0-.871.871,5.755,5.755,0,0,1-2.445,4.327.871.871,0,1,0,1.01,1.42,7.5,7.5,0,0,0,3.178-5.748A.871.871,0,0,0,113.063,352.064Z" transform="translate(-96.672 -322.836)"/><path class="a" d="M188.154,352.064a.871.871,0,0,0-.871.871v5.037a.871.871,0,0,0,1.743,0v-5.037A.871.871,0,0,0,188.154,352.064Z" transform="translate(-165.525 -322.836)"/><path class="a" d="M250.935,352.064a.871.871,0,0,0-.871.871v5.037a.871.871,0,0,0,1.743,0v-5.037A.871.871,0,0,0,250.935,352.064Z" transform="translate(-221.012 -322.836)"/><path class="a" d="M366.516,357.262a5.734,5.734,0,0,1-2.445-4.331.871.871,0,0,0-1.743,0,7.5,7.5,0,0,0,3.178,5.748.871.871,0,1,0,1.01-1.421Z" transform="translate(-320.233 -322.836)"/><path class="a" d="M309.5,352.064a.871.871,0,0,0-.871.871v5.037a.871.871,0,1,0,1.743,0v-5.037A.871.871,0,0,0,309.5,352.064Z" transform="translate(-272.77 -322.836)"/></svg>