<svg xmlns="http://www.w3.org/2000/svg" width="44.223" height="42.31" viewBox="0 0 44.223 42.31"><defs><style>.a{fill:#9c115e;}</style></defs><path class="a" d="M43.594,40.341H39.405V37.376a.628.628,0,0,0-.628-.628h-2.3V34.267a.628.628,0,0,0-.628-.628H29.98a.628.628,0,0,0-.628.628v6.075H24.079q.086-.114.165-.233a13.191,13.191,0,0,0-.289-14.848V18.241a9.12,9.12,0,0,0-9.109-9.109H11.577a9.152,9.152,0,0,0-9.142,9.142v6.984c-.141.2-.278.4-.408.606a13.2,13.2,0,0,0,.119,14.244q.079.12.166.234a.628.628,0,0,0-.608.627v2.513a.628.628,0,0,0,.628.628H6.521V47.7a.628.628,0,0,0,.628.628h2.3v2.481a.628.628,0,0,0,.628.628h5.865a.628.628,0,0,0,.628-.628v-6.7H29.351v6.7a.628.628,0,0,0,.628.628h5.865a.628.628,0,0,0,.628-.628V48.333h2.3a.628.628,0,0,0,.628-.628V44.111h4.189a.628.628,0,0,0,.628-.628V40.97A.629.629,0,0,0,43.594,40.341ZM7.83,20.838a4.449,4.449,0,0,1,3.98-6.469h2.772a4.443,4.443,0,0,1,3.976,6.468,13.2,13.2,0,0,0-10.727,0Zm12.445-2.594H22.7v5.5a13.283,13.283,0,0,0-3.018-2.34,5.7,5.7,0,0,0,.623-2.6Q20.3,18.522,20.275,18.244Zm-8.7-7.855h3.268a7.864,7.864,0,0,1,7.751,6.6H20a5.7,5.7,0,0,0-5.423-3.875H11.809a5.729,5.729,0,0,0-5.417,3.875H3.8A7.9,7.9,0,0,1,11.577,10.389ZM3.692,18.274c0-.01,0-.02,0-.03H6.117A5.7,5.7,0,0,0,6.708,21.4a13.211,13.211,0,0,0-3.016,2.334V18.274ZM2.96,42.855V41.6H6.521v1.257Zm4.817,4.221V38H9.453v9.072ZM10.71,34.9h1.676v15.29H10.71Zm4.608,15.29H13.642V34.9h1.676ZM10.081,33.638a.628.628,0,0,0-.628.628v2.481h-2.3a.628.628,0,0,0-.628.628v2.965H4.169A2.868,2.868,0,0,1,3.2,39.42a11.938,11.938,0,0,1,19.591-13.63,11.94,11.94,0,0,1,.4,13.63,2.866,2.866,0,0,1-.971.921H16.574V34.267a.628.628,0,0,0-.628-.628Zm6.493,9.216V41.6H29.351v1.257ZM30.608,34.9h1.676v15.29H30.608Zm4.608,15.29H33.541V34.9h1.676Zm2.932-3.109H36.473V38h1.676Zm4.817-4.221H39.405V41.6h3.561Z" transform="translate(0 -9.132)"/></svg>