<svg xmlns="http://www.w3.org/2000/svg" width="39.535" height="39.535" viewBox="0 0 39.535 39.535"><defs><style>.a{fill:#9c115e;}</style></defs><g transform="translate(-16 -16)"><path class="a" d="M52.24,16H19.295A3.3,3.3,0,0,0,16,19.295V52.24a3.3,3.3,0,0,0,3.295,3.295H52.24a3.3,3.3,0,0,0,3.295-3.295V19.295A3.3,3.3,0,0,0,52.24,16Zm1.977,36.24a1.979,1.979,0,0,1-1.977,1.977H19.295a1.979,1.979,0,0,1-1.977-1.977V19.295a1.979,1.979,0,0,1,1.977-1.977H52.24a1.979,1.979,0,0,1,1.977,1.977Z"/><path class="a" d="M81.6,51.953h-.659V48.659A.659.659,0,0,0,80.287,48H48.659a.659.659,0,0,0-.659.659V81.6a.659.659,0,0,0,.659.659H80.287a.659.659,0,0,0,.659-.659V78.31H81.6a.659.659,0,0,0,.659-.659V71.062A.659.659,0,0,0,81.6,70.4h-.659V59.86H81.6a.659.659,0,0,0,.659-.659V52.612A.659.659,0,0,0,81.6,51.953Zm-.659,25.039H79.628V71.721h1.318ZM79.628,70.4h-.659a.659.659,0,0,0-.659.659v6.589a.659.659,0,0,0,.659.659h.659v2.636H49.318V49.318h30.31v2.636h-.659a.659.659,0,0,0-.659.659V59.2a.659.659,0,0,0,.659.659h.659Zm1.318-11.86H79.628V53.271h1.318Z" transform="translate(-29.364 -29.364)"/><path class="a" d="M104.38,152h-22.4A1.979,1.979,0,0,0,80,153.977v13.178a1.979,1.979,0,0,0,1.977,1.977h22.4a1.979,1.979,0,0,0,1.977-1.977V153.977A1.979,1.979,0,0,0,104.38,152Zm.659,15.155a.66.66,0,0,1-.659.659h-22.4a.66.66,0,0,1-.659-.659V153.977a.66.66,0,0,1,.659-.659h22.4a.66.66,0,0,1,.659.659Z" transform="translate(-58.729 -124.799)"/><path class="a" d="M115.953,208a3.953,3.953,0,1,0,3.953,3.953A3.953,3.953,0,0,0,115.953,208Zm0,6.589a2.636,2.636,0,1,1,2.552-3.295h-1.234v1.318h1.234a2.64,2.64,0,0,1-2.552,1.977Z" transform="translate(-88.093 -176.186)"/><path class="a" d="M264.566,184h-7.907a.659.659,0,0,0-.659.659V195.2a.659.659,0,0,0,.659.659h7.907a.659.659,0,0,0,.659-.659V184.659A.659.659,0,0,0,264.566,184Zm-.659,2.636h-1.318v-1.318h1.318Zm-3.953,5.271v-1.318h1.318v1.318Zm1.318,1.318v1.318h-1.318v-1.318Zm0-5.271v1.318h-1.318v-1.318Zm-1.318-1.318v-1.318h1.318v1.318Zm-1.318,2.636h-1.318v-1.318h1.318Zm0,1.318v1.318h-1.318v-1.318Zm3.953,0h1.318v1.318h-1.318Zm0-1.318v-1.318h1.318v1.318Zm-3.953-3.953v1.318h-1.318v-1.318Zm-1.318,7.907h1.318v1.318h-1.318Zm5.271,1.318v-1.318h1.318v1.318Z" transform="translate(-220.233 -154.163)"/><path class="a" d="M201.977,184a1.977,1.977,0,1,0,1.977,1.977A1.977,1.977,0,0,0,201.977,184Zm0,2.636a.659.659,0,1,1,.659-.659A.659.659,0,0,1,201.977,186.636Z" transform="translate(-168.845 -154.163)"/></g></svg>