<svg xmlns="http://www.w3.org/2000/svg" width="34.799" height="34.797" viewBox="0 0 34.799 34.797"><defs><style>.a{fill:#9c115e;}</style></defs><g transform="translate(0 0)"><path class="a" d="M34.887,27.863l-7.044-4.7a2.056,2.056,0,0,0-2.753.447L23.039,26.25a.877.877,0,0,1-1.124.237l-.39-.215a23.586,23.586,0,0,1-6.147-4.828A23.682,23.682,0,0,1,10.549,15.3l-.214-.39a.878.878,0,0,1,.232-1.129L13.2,11.727a2.057,2.057,0,0,0,.448-2.753l-4.7-7.044A2.045,2.045,0,0,0,6.2,1.311L3.251,3.08A4.155,4.155,0,0,0,1.357,5.539C.3,9.4,1.094,16.073,10.919,25.9c7.815,7.815,13.634,9.916,17.633,9.916a10.274,10.274,0,0,0,2.726-.356,4.151,4.151,0,0,0,2.459-1.895l1.771-2.944A2.045,2.045,0,0,0,34.887,27.863Zm-.379,2.163L32.74,32.971a3,3,0,0,1-1.769,1.371c-3.568.979-9.8.168-19.233-9.264S1.5,9.413,2.475,5.845A3,3,0,0,1,3.848,4.074L6.793,2.307a.887.887,0,0,1,1.2.269l2.552,3.831,2.142,3.212a.893.893,0,0,1-.194,1.195L9.852,12.865a2.03,2.03,0,0,0-.538,2.6l.209.38a24.6,24.6,0,0,0,5.027,6.414,24.627,24.627,0,0,0,6.413,5.026l.381.21a2.03,2.03,0,0,0,2.6-.538L26,24.326a.893.893,0,0,1,1.195-.194l7.043,4.7A.887.887,0,0,1,34.507,30.026Z" transform="translate(-1 -1.018)"/><path class="a" d="M283.208,70.484a9.87,9.87,0,0,1,9.858,9.858.58.58,0,1,0,1.16,0,11.03,11.03,0,0,0-11.018-11.018.58.58,0,1,0,0,1.16Z" transform="translate(-263.489 -64.682)"/><path class="a" d="M283.208,121.684a6.386,6.386,0,0,1,6.379,6.379.58.58,0,1,0,1.16,0,7.547,7.547,0,0,0-7.539-7.539.58.58,0,1,0,0,1.16Z" transform="translate(-263.489 -112.403)"/><path class="a" d="M283.208,172.884a2.9,2.9,0,0,1,2.9,2.9.58.58,0,0,0,1.16,0,4.064,4.064,0,0,0-4.059-4.059.58.58,0,1,0,0,1.16Z" transform="translate(-263.489 -160.123)"/></g></svg>