<svg xmlns="http://www.w3.org/2000/svg" width="39.591" height="39.591" viewBox="0 0 39.591 39.591"><defs><style>.a{fill:#9c115e;}</style></defs><path class="a" d="M33.793,5.8A19.8,19.8,0,0,0,5.406,33.39a.581.581,0,0,0,.845-.8A18.622,18.622,0,1,1,7.9,34.139a.581.581,0,0,0-.742.894A19.8,19.8,0,0,0,33.793,5.8Z" transform="translate(0)"/><path class="a" d="M69.118,46.428a.581.581,0,0,0-.028-.821,16.6,16.6,0,1,0,1.642,1.772.581.581,0,1,0-.907.726,15.285,15.285,0,0,1,3.381,9.648,15.452,15.452,0,1,1-4.909-11.3A.581.581,0,0,0,69.118,46.428Z" transform="translate(-37.957 -37.957)"/><path class="a" d="M249.647,70.238v-1.8a.581.581,0,1,0-1.162,0v1.8a.581.581,0,0,0,1.162,0Z" transform="translate(-229.27 -62.61)"/><path class="a" d="M248.485,406.417v1.8a.581.581,0,0,0,1.162,0v-1.8a.581.581,0,0,0-1.162,0Z" transform="translate(-229.27 -374.454)"/><path class="a" d="M408.217,249.647a.581.581,0,0,0,0-1.162h-1.8a.581.581,0,0,0,0,1.162Z" transform="translate(-374.454 -229.27)"/><path class="a" d="M68.439,248.485a.581.581,0,0,0,0,1.162h1.8a.581.581,0,0,0,0-1.162Z" transform="translate(-62.611 -229.27)"/><path class="a" d="M140.409,154.445a.581.581,0,1,0,.748-.89l-6.315-5.3a2.547,2.547,0,0,0,.274-1l3.688-3.739a1.743,1.743,0,0,0-2.482-2.448l-3.43,3.478a2.562,2.562,0,0,0-.852.029L125.11,138.4a1.743,1.743,0,1,0-2.32,2.6l3.353,2.988a.581.581,0,1,0,.773-.868l-3.353-2.988a.581.581,0,1,1,.773-.868l6.569,5.854a2.58,2.58,0,0,0-.7.932l-1.554-1.385a.581.581,0,0,0-.773.868l2.132,1.9a2.565,2.565,0,0,0,4.083,1.7Zm-3.261-12.564a.581.581,0,1,1,.827.816l-3.151,3.194a2.585,2.585,0,0,0-.764-.881Zm-4.594,6.611a1.4,1.4,0,1,1,1.4-1.4A1.407,1.407,0,0,1,132.554,148.492Z" transform="translate(-112.758 -127.292)"/></svg>