<svg xmlns="http://www.w3.org/2000/svg" width="49.903" height="53.147" viewBox="0 0 49.903 53.147"><defs><style>.a{fill:#9c115e;}</style></defs><path class="a" d="M22.028,5.818l-2.87-1.68a.779.779,0,0,0-.787,1.344l2.87,1.68a.779.779,0,0,0,.787-1.344Zm.852-1.923a.779.779,0,1,0,1.158-1.041L21.7.258A.779.779,0,1,0,20.546,1.3Zm-2.9,4.952-3.406-.765A.778.778,0,0,0,16.234,9.6l3.406.765a.778.778,0,1,0,.341-1.519Zm44.69,13.345a10.653,10.653,0,0,0-7.266-6.23L37.253,10.88l-5.673-6.4a1.918,1.918,0,0,0-2.649-.215,17.356,17.356,0,0,0-6.221,10.78,1.916,1.916,0,0,0,1.512,2.182L32.6,18.943l2.8,2.883a.778.778,0,1,0,1.117-1.084l-2.556-2.633,3.252-5.633,19.815,5a9.183,9.183,0,1,1-8.833,15.3l-9.457-9.742a.778.778,0,1,0-1.117,1.084l6.3,6.487a4.332,4.332,0,0,0-3.462,5.394,4.569,4.569,0,0,0,2.483,2.9l-3.51,6.079a5.45,5.45,0,1,0,9.439,5.45l6.175-10.695a.778.778,0,0,0-1.348-.779L47.515,49.642a3.892,3.892,0,1,1-6.742-3.893l6.663-11.54a10.626,10.626,0,0,0,7.314,2.906,10.981,10.981,0,0,0,1.353-.084,10.74,10.74,0,0,0,8.569-14.841ZM32.6,17.353,24.534,15.7a.362.362,0,0,1-.287-.411,15.8,15.8,0,0,1,5.665-9.816.367.367,0,0,1,.232-.083.361.361,0,0,1,.271.122l5.46,6.157Zm11.117,20.19-.463-.267a2.779,2.779,0,0,1,1.392-5.184,2.731,2.731,0,0,1,.854.137l.806.83Zm17.12-7.726a5.794,5.794,0,1,0-7.915,2.121,5.816,5.816,0,0,0,7.915-2.121ZM52.146,24.8A4.237,4.237,0,1,1,53.7,30.59,4.265,4.265,0,0,1,52.146,24.8ZM48.257,43.873a2.322,2.322,0,1,0-.608.081,2.349,2.349,0,0,0,.608-.081Zm-.994-1.582a.779.779,0,1,1,1.063-.285h0a.778.778,0,0,1-1.063.285Zm9.879-12.807a.779.779,0,0,0-.285-1.063l-2.863-1.653a.778.778,0,0,0-.779,1.348l2.863,1.653A.78.78,0,0,0,57.143,29.485ZM46.2,47.439l-2.863-1.653a.778.778,0,1,0-.779,1.348l2.863,1.653a.778.778,0,0,0,.779-1.348ZM54.773,25.42l2.863,1.653a.778.778,0,0,0,.779-1.348l-2.863-1.653a.778.778,0,0,0-.779,1.348Z" transform="translate(-15.626 0)"/></svg>