<svg xmlns="http://www.w3.org/2000/svg" width="42.54" height="42.54" viewBox="0 0 42.54 42.54"><defs><style>.a{fill:#9c115e;}</style></defs><path class="a" d="M82.741,35.9v-.762a7.8,7.8,0,0,0-15.6,0v2.836H64.307a.709.709,0,0,0-.709.709v2.836a.709.709,0,0,0,.709.709h.071l.671,6.381H62.18V18.127a2.127,2.127,0,1,0-4.254,0V48.614h-7.09a1.42,1.42,0,0,0-1.418,1.418v2.04l-1.4,5.587a.709.709,0,0,0,.688.881H82.032a.709.709,0,0,0,.709-.709v-2.8l1-9.507a2.17,2.17,0,0,0,1.126-1.914v-5.1A2.663,2.663,0,0,0,82.741,35.9Zm-14.18-.762a6.381,6.381,0,0,1,12.762,0v.709H74.765a2.663,2.663,0,0,0-2.606,2.127h-3.6ZM65.016,39.4h7.09v1.418h-7.09Zm.788,2.836h6.3v1.379a2.2,2.2,0,0,0,.654,1.554,2.092,2.092,0,0,0,1.506.612,2.136,2.136,0,0,0,1.385-.543,2.123,2.123,0,0,0,2.836,0,2.123,2.123,0,0,0,2.835,0,2.105,2.105,0,0,0,.972.494l-.9,8.556H71.241l-.554-2.214v-2.04a1.42,1.42,0,0,0-1.418-1.418h-2.8ZM59.344,18.127a.709.709,0,1,1,1.418,0V48.614H59.344Zm-8.508,31.9H69.27V51.45H50.836Zm1.617,7.09,1.063-4.254h1.374l-1.063,4.254Zm-1.772-4.254h1.374l-1.063,4.254H49.617Zm5.672,0h1.479L57.3,57.122H55.289Zm2.377,4.254.532-4.254h1.584l.532,4.254Zm4.077,0-.532-4.254h1.479l1.063,4.254Zm3.473,0-1.063-4.254h1.374l1.063,4.254Zm2.836,0-1.063-4.254h1.374l1.063,4.254Zm12.208,0H71.95L71.6,55.7h9.727Zm2.127-15.6v2.087a.738.738,0,0,1-.674.748.709.709,0,0,1-.744-.708V40.815H80.614v2.836a.709.709,0,1,1-1.418,0V40.815H77.778v2.836a.709.709,0,0,1-1.418,0V40.815H74.942v2.836a.708.708,0,0,1-.7.709h-.01a.682.682,0,0,1-.48-.2.77.77,0,0,1-.23-.544v-5.1a1.242,1.242,0,0,1,1.241-1.241h7.444a1.242,1.242,0,0,1,1.241,1.241Z" transform="translate(-45.164 -16)"/><rect class="a" width="1.692" height="4.231" transform="translate(33.079 33.003)"/><rect class="a" width="1.692" height="1.692" transform="translate(33.079 30.464)"/><path class="a" d="M66.871,206.606a.709.709,0,0,0,1.345,0,3.793,3.793,0,0,1,2.388-2.388.709.709,0,0,0,0-1.345,3.793,3.793,0,0,1-2.388-2.388.709.709,0,0,0-1.345,0,3.793,3.793,0,0,1-2.388,2.388.709.709,0,0,0,0,1.345A3.793,3.793,0,0,1,66.871,206.606Zm.673-4.339a5.247,5.247,0,0,0,1.279,1.279,5.247,5.247,0,0,0-1.279,1.279,5.247,5.247,0,0,0-1.279-1.279A5.247,5.247,0,0,0,67.543,202.267Z" transform="translate(-59.744 -183.694)"/><path class="a" d="M422.6,106.873a3.793,3.793,0,0,1-2.388-2.388.709.709,0,0,0-1.345,0,3.793,3.793,0,0,1-2.388,2.388.709.709,0,0,0,0,1.345,3.793,3.793,0,0,1,2.388,2.388.709.709,0,0,0,1.345,0,3.793,3.793,0,0,1,2.388-2.388.709.709,0,0,0,0-1.345Zm-3.06,1.952a5.247,5.247,0,0,0-1.279-1.279,5.247,5.247,0,0,0,1.279-1.279,5.246,5.246,0,0,0,1.279,1.279A5.247,5.247,0,0,0,419.543,108.825Z" transform="translate(-380.549 -96.202)"/><path class="a" d="M19.543,303.091a.709.709,0,0,0,.673-.485,3.793,3.793,0,0,1,2.388-2.388.709.709,0,0,0,0-1.345,3.793,3.793,0,0,1-2.388-2.388.709.709,0,0,0-1.345,0,3.793,3.793,0,0,1-2.388,2.388.709.709,0,0,0,0,1.345,3.793,3.793,0,0,1,2.388,2.388A.709.709,0,0,0,19.543,303.091Zm0-4.824a5.247,5.247,0,0,0,1.279,1.279,5.247,5.247,0,0,0-1.279,1.279,5.247,5.247,0,0,0-1.279-1.279A5.247,5.247,0,0,0,19.543,298.267Z" transform="translate(-15.998 -271.186)"/></svg>