<svg xmlns="http://www.w3.org/2000/svg" width="50.301" height="39.384" viewBox="0 0 50.301 39.384"><defs><style>.a{fill:#9c115e;}</style></defs><path class="a" d="M205.184,208.318a5.4,5.4,0,0,0-1.407,1.463.613.613,0,0,0,1.028.67,4.182,4.182,0,0,1,1.089-1.133.613.613,0,0,0-.709-1Z" transform="translate(-183.875 -196.466)"/><path class="a" d="M20.2,131.55H15.7v-28.1c0-.01,0-.02,0-.03a8.59,8.59,0,0,1,8.343-8.8,8.555,8.555,0,0,1,8.324,8.241,5.413,5.413,0,0,0-4.774,5.368v.958a.613.613,0,0,0,.613.613h2.73a2.239,2.239,0,0,0,4.349,0H37.8a.613.613,0,0,0,.613-.613v-.958a5.413,5.413,0,0,0-4.808-5.372,9.787,9.787,0,0,0-9.554-9.463,9.814,9.814,0,0,0-9.57,9.97c0,.014,0,.028,0,.043v28.143H10.613a.613.613,0,1,0,0,1.227H20.2a.613.613,0,1,0,0-1.227ZM33.115,110.28a1.016,1.016,0,0,1-.847-.48h1.694A1.016,1.016,0,0,1,33.115,110.28Zm4.067-2.052v.345H28.824v-.345a4.179,4.179,0,0,1,8.358,0Z" transform="translate(-10 -93.393)"/><path class="a" d="M171.594,315.76V311.7a2.585,2.585,0,0,0-2.6-2.562H157.767a2.578,2.578,0,0,0-1.84.759c-.051.051-.1.1-.144.158a2.614,2.614,0,0,0-1.993-.917H142.5a2.585,2.585,0,0,0-2.6,2.562v4.07a2.966,2.966,0,0,0-2.7,2.93v7.15a.613.613,0,0,0,.613.613h4.756a.613.613,0,0,0,.613-.613v-.817l25.331.008v.809a.613.613,0,0,0,.613.613h4.756a.613.613,0,0,0,.613-.613V318.7A2.969,2.969,0,0,0,171.594,315.76Zm-14.8-5a1.36,1.36,0,0,1,.971-.4h11.225a1.357,1.357,0,0,1,1.375,1.335v4.277a2.948,2.948,0,0,0-1.859,2.724v.24l-12.113,0,0-7.176A1.392,1.392,0,0,1,156.8,310.764Zm-14.295-.4H153.79a1.357,1.357,0,0,1,1.375,1.336l0,7.237-11.991,0V318.7a2.953,2.953,0,0,0-2.051-2.794V311.7a1.357,1.357,0,0,1,1.375-1.336Zm-.551,14.872h-3.529V318.7a1.765,1.765,0,0,1,3.529,0Zm1.227-1.431v-3.646l12.6,0h0l12.727,0v3.647Zm30.087,1.431h-3.529V318.7a1.765,1.765,0,0,1,3.529,0Z" transform="translate(-124.19 -287.082)"/></svg>