<svg xmlns="http://www.w3.org/2000/svg" width="38.925" height="32.552" viewBox="0 0 38.925 32.552"><defs><style>.a{fill:#9c115e;}</style></defs><g transform="translate(0 0)"><path class="a" d="M38.173,55.557l-2.551-.928.081-.222,0-.014,2.877-2.014a.8.8,0,0,0-.185-1.4L13.784,42.015a1.748,1.748,0,0,0-2.241,1.045l-3.7,10.169a1.748,1.748,0,0,0,1.045,2.241l7.19,2.617-2.61,5.264A3.2,3.2,0,0,0,11.7,64.441H8.383V62.086a.8.8,0,0,0-.8-.8h-2.9a2.28,2.28,0,0,0-2.172-1.6H.8a.8.8,0,0,0-.8.8V73.662a.8.8,0,0,0,.8.8H2.515a2.279,2.279,0,0,0,2.172-1.6h2.9a.8.8,0,0,0,.8-.8V69.231h4.2a3.191,3.191,0,0,0,4.784-2.768c0-.1-.005-.2-.014-.291l3.239-6.444L31.474,63.69a.8.8,0,0,0,1.023-.477l.8-2.207,2.551.928a.8.8,0,0,0,1.023-.477L38.65,56.58A.8.8,0,0,0,38.173,55.557ZM3.193,62.086v10.1a.679.679,0,0,1-.679.679H1.6V61.288h.918a.679.679,0,0,1,.679.679Zm3.593,9.181h-2V62.884h2Zm1.6-3.633v-1.6h2.624a3.166,3.166,0,0,0,.194,1.6Zm5.788.426a1.6,1.6,0,1,1,1.6-1.6A1.6,1.6,0,0,1,14.171,68.06Zm2.338-3.769a3.2,3.2,0,0,0-1.305-.849l2.383-4.807,1.492.543Zm15.946-5.63L31.27,61.916,9.433,53.968a.151.151,0,0,1-.09-.194l.613-1.683,4.753,1.73a.8.8,0,0,0,.546-1.5L10.5,50.591l2.542-6.985a.151.151,0,0,1,.194-.09L36.412,51.95l-7.586,5.31L21.6,54.629a.8.8,0,0,0-.546,1.5L28.67,58.9a.8.8,0,0,0,.731-.1l4.027-2.819Zm3.193,1.5-1.8-.655,1.229-3.376,1.8.655Z" transform="translate(0 -41.908)"/><path class="a" d="M230.713,193.958l-.116-.042a.8.8,0,1,0-.546,1.5l.116.042a.8.8,0,0,0,.546-1.5Z" transform="translate(-212.075 -182.315)"/></g></svg>