<svg xmlns="http://www.w3.org/2000/svg" width="41.94" height="43.399" viewBox="0 0 41.94 43.399"><defs><style>.a{fill:#9c115e;}</style></defs><path class="a" d="M175.322,308.1a.723.723,0,0,0,.718-.642l.242-2.157a.724.724,0,1,0-1.438-.16l-.242,2.156a.723.723,0,0,0,.639.8A.63.63,0,0,0,175.322,308.1Zm0,0" transform="translate(-158.857 -276.963)"/><path class="a" d="M170.235,360.753l-.081.719a.724.724,0,0,0,.638.8.785.785,0,0,0,.082,0,.723.723,0,0,0,.718-.642l.08-.719a.723.723,0,0,0-1.438-.161Zm0,0" transform="translate(-154.811 -327.547)"/><path class="a" d="M163.346,400.542l-.322,2.876a.723.723,0,0,0,.639.8.772.772,0,0,0,.081,0,.723.723,0,0,0,.718-.643l.322-2.875a.723.723,0,0,0-1.438-.161Zm0,0" transform="translate(-148.325 -363.742)"/><path class="a" d="M159.462,456.9a.724.724,0,0,0,.638.8.78.78,0,0,0,.082,0,.724.724,0,0,0,.718-.643l.08-.719a.725.725,0,0,0-1.441-.161Zm0,0" transform="translate(-145.085 -414.348)"/><path class="a" d="M255.182,304.5a.723.723,0,0,0-.639.8l.242,2.157a.723.723,0,0,0,.718.642.632.632,0,0,0,.082,0,.723.723,0,0,0,.639-.8l-.242-2.156a.724.724,0,0,0-.8-.642Zm0,0" transform="translate(-231.57 -276.962)"/><path class="a" d="M261.42,360.153a.724.724,0,0,0-.638.8l.08.719a.724.724,0,0,0,.718.642.771.771,0,0,0,.081,0,.723.723,0,0,0,.639-.8l-.08-.719a.724.724,0,0,0-.8-.642Zm0,0" transform="translate(-237.244 -327.586)"/><path class="a" d="M265.9,399.911a.723.723,0,0,0-.639.8l.322,2.875a.724.724,0,0,0,.718.643.768.768,0,0,0,.081,0,.723.723,0,0,0,.639-.8l-.326-2.872A.723.723,0,0,0,265.9,399.911Zm0,0" transform="translate(-241.316 -363.749)"/><path class="a" d="M271.52,456.355l.08.719a.723.723,0,0,0,.718.643.773.773,0,0,0,.081,0,.723.723,0,0,0,.639-.8l-.08-.719a.723.723,0,1,0-1.438.161Zm0,0" transform="translate(-247.011 -414.362)"/><path class="a" d="M217.086,306.17a.723.723,0,0,0,.723-.723v-.723a.723.723,0,0,0-1.447,0v.723A.723.723,0,0,0,217.086,306.17Zm0,0" transform="translate(-196.845 -276.514)"/><path class="a" d="M216.363,347.617a.723.723,0,0,0,1.447,0v-2.893a.723.723,0,1,0-1.447,0Zm0,0" transform="translate(-196.845 -312.897)"/><path class="a" d="M216.363,442.893a.723.723,0,1,0,1.447,0v-2.17a.723.723,0,0,0-1.447,0Zm0,0" transform="translate(-196.845 -400.217)"/><path class="a" d="M216.363,401.447a.723.723,0,1,0,1.447,0v-.723a.723.723,0,0,0-1.447,0Zm0,0" transform="translate(-196.845 -363.834)"/><path class="a" d="M135.726,305.624a.723.723,0,0,0-.852.564l-.145.709a.723.723,0,0,0,.565.854.8.8,0,0,0,.145.015.723.723,0,0,0,.707-.579l.145-.709a.723.723,0,0,0-.565-.853Zm0,0" transform="translate(-122.579 -277.978)"/><path class="a" d="M122.533,345.206l-.579,2.835a.723.723,0,0,0,.566.854.711.711,0,0,0,.145.014.724.724,0,0,0,.708-.579l.579-2.836a.723.723,0,1,0-1.417-.289Zm0,0" transform="translate(-110.959 -313.453)"/><path class="a" d="M104.852,439.281l-.434,2.127a.723.723,0,0,0,.565.853.691.691,0,0,0,.145.015.723.723,0,0,0,.707-.579l.434-2.127a.723.723,0,1,0-1.417-.289Zm0,0" transform="translate(-95.009 -399.021)"/><path class="a" d="M115.739,400.087l-.144.709a.723.723,0,0,0,.564.853.712.712,0,0,0,.145.014.724.724,0,0,0,.708-.579l.144-.709a.723.723,0,1,0-1.417-.29Zm0,0" transform="translate(-105.174 -363.37)"/><path class="a" d="M297.737,305.9a.723.723,0,1,0-1.416.289l.145.709a.724.724,0,0,0,.707.579.794.794,0,0,0,.145-.014.724.724,0,0,0,.565-.854Zm0,0" transform="translate(-269.555 -277.686)"/><path class="a" d="M305.733,345.206a.723.723,0,1,0-1.417.289l.579,2.836a.723.723,0,0,0,.708.579.711.711,0,0,0,.144-.014.723.723,0,0,0,.564-.853Zm0,0" transform="translate(-276.829 -313.453)"/><path class="a" d="M323.446,439.577l.434,2.126a.723.723,0,0,0,.707.579.687.687,0,0,0,.144-.014.723.723,0,0,0,.564-.853l-.434-2.127a.723.723,0,1,0-1.417.289Zm0,0" transform="translate(-294.229 -399.029)"/><path class="a" d="M316.893,400.094a.723.723,0,1,0-1.417.289l.145.709a.723.723,0,0,0,.708.578.692.692,0,0,0,.144-.014.723.723,0,0,0,.564-.853Zm0,0" transform="translate(-286.98 -363.377)"/><path class="a" d="M158.019,0h-1.447a2.165,2.165,0,0,0-2.142,1.9H142.211a3.611,3.611,0,0,0-2.865,1.41L134.5,10.127h-.35a.723.723,0,0,0-.723.723v3.833a5.072,5.072,0,0,0-3.617,4.846v1.58a2.17,2.17,0,0,0-1.447,2.037v.723a2.17,2.17,0,0,0,2.17,2.17h13.02a2.17,2.17,0,0,0,2.17-2.17v-.723a2.17,2.17,0,0,0-1.447-2.037V19.53a5.07,5.07,0,0,0-3.617-4.846V10.85a.723.723,0,0,0-.209-.506l2.872-4.1h11.128a2.169,2.169,0,0,0,2.121,1.717h1.447a.723.723,0,0,0,.723-.723V.723A.723.723,0,0,0,158.019,0ZM134.873,11.573h4.34v2.893h-4.34Zm9.4,11.573v.723a.723.723,0,0,1-.723.723h-13.02a.723.723,0,0,1-.723-.723v-.723a.723.723,0,0,1,.723-.723h13.02A.723.723,0,0,1,144.276,23.146Zm-1.447-3.617v1.447H131.256V19.53a3.621,3.621,0,0,1,3.617-3.617h4.34A3.621,3.621,0,0,1,142.829,19.53ZM154.4,4.792h-11.08a1.457,1.457,0,0,0-1.157.579l-3.329,4.756h-2.561l4.23-5.952a2.157,2.157,0,0,1,1.707-.829H154.4ZM157.3,6.51h-.723a.723.723,0,0,1-.723-.723V2.17a.723.723,0,0,1,.723-.723h.723Zm0,0" transform="translate(-116.802)"/><path class="a" d="M368.363,253.787a2.17,2.17,0,1,0,4.34,0c0-.033-.011-.065-.013-.1A2.889,2.889,0,1,0,369.309,252,2.163,2.163,0,0,0,368.363,253.787Zm3.617-4.34a1.447,1.447,0,1,1-1.447,1.447A1.446,1.446,0,0,1,371.98,249.447Zm-1.787,3.7a2.864,2.864,0,0,0,1.05.529.683.683,0,0,1,.014.107.723.723,0,1,1-1.447,0A.733.733,0,0,1,370.193,253.151Zm0,0" transform="translate(-335.102 -225.577)"/><path class="a" d="M392.363,402.17a2.17,2.17,0,1,0,2.17-2.17A2.17,2.17,0,0,0,392.363,402.17Zm2.893,0a.723.723,0,1,1-.723-.723A.723.723,0,0,1,395.256,402.17Zm0,0" transform="translate(-356.932 -363.834)"/><path class="a" d="M66.533,192a2.17,2.17,0,1,0,2.17,2.17A2.17,2.17,0,0,0,66.533,192Zm0,2.893a.723.723,0,1,1,.723-.723A.723.723,0,0,1,66.533,194.893Zm0,0" transform="translate(-58.589 -174.64)"/><path class="a" d="M3.378,256a2.893,2.893,0,0,0-.611,5.718,2.163,2.163,0,1,0,3.453-2.3A2.875,2.875,0,0,0,3.378,256Zm-.555,4.229a1.447,1.447,0,1,1,2-1.335,2.169,2.169,0,0,0-2,1.335Zm2,1.558a.723.723,0,1,1,.723-.723A.723.723,0,0,1,4.825,261.786Zm0,0" transform="translate(-0.497 -232.853)"/><path class="a" d="M19.257,389.787a2.893,2.893,0,1,0-2.893-2.893A2.893,2.893,0,0,0,19.257,389.787Zm0-4.34a1.447,1.447,0,1,1-1.447,1.447A1.447,1.447,0,0,1,19.257,385.447Zm0,0" transform="translate(-14.929 -349.281)"/></svg>