<svg xmlns="http://www.w3.org/2000/svg" width="46.293" height="38.577" viewBox="0 0 46.293 38.577"><defs><style>.a{fill:#9c115e;}</style></defs><g transform="translate(0 0)"><path class="a" d="M43.4,42.667H2.893A2.9,2.9,0,0,0,0,45.56v27a2.9,2.9,0,0,0,2.893,2.893h16.4v2.077L8.522,79.329a.964.964,0,0,0,.158,1.915.9.9,0,0,0,.158-.013L20.33,79.315h5.63l11.492,1.915a.909.909,0,0,0,.16.013.964.964,0,0,0,.156-1.915L27,77.535V75.458H43.4a2.9,2.9,0,0,0,2.893-2.893v-27A2.9,2.9,0,0,0,43.4,42.667ZM25.075,77.386H21.217V75.458h3.858Zm19.289-4.822a.965.965,0,0,1-.964.964H2.893a.965.965,0,0,1-.964-.964v-27a.965.965,0,0,1,.964-.964H43.4a.965.965,0,0,1,.964.964Z" transform="translate(0 -42.667)"/><path class="a" d="M236.6,277.333a1.929,1.929,0,1,0,1.929,1.929A1.929,1.929,0,0,0,236.6,277.333Z" transform="translate(-213.45 -256.116)"/><path class="a" d="M185.279,194.591a.964.964,0,0,0,1.364,1.364,6.762,6.762,0,0,1,9.548,0,.969.969,0,0,0,.683.282.964.964,0,0,0,.681-1.645A8.692,8.692,0,0,0,185.279,194.591Z" transform="translate(-168.27 -178.547)"/><path class="a" d="M155.114,153.074a.964.964,0,0,0,1.364,1.364,10.618,10.618,0,0,1,15,0,.964.964,0,1,0,1.364-1.364A12.552,12.552,0,0,0,155.114,153.074Z" transform="translate(-140.833 -139.757)"/><path class="a" d="M215.445,236.565a.964.964,0,0,0,1.364,1.364,2.964,2.964,0,0,1,4.091,0,.964.964,0,0,0,1.364-1.364A4.938,4.938,0,0,0,215.445,236.565Z" transform="translate(-195.709 -217.792)"/></g></svg>