<svg xmlns="http://www.w3.org/2000/svg" width="46.293" height="36.486" viewBox="0 0 46.293 36.486"><defs><style>.a{fill:#9c115e;}</style></defs><g transform="translate(0 0)"><path class="a" d="M45.616,102.41H38.746a.68.68,0,1,0,0,1.359h6.871a.68.68,0,1,0,0-1.359Z" transform="translate(-34.624 -98.054)"/><path class="a" d="M45.616,144.532H38.746a.68.68,0,1,0,0,1.359h6.871a.68.68,0,1,0,0-1.359Z" transform="translate(-34.624 -136.367)"/><path class="a" d="M45.616,186.653H38.746a.68.68,0,1,0,0,1.359h6.871a.68.68,0,1,0,0-1.359Z" transform="translate(-34.624 -174.68)"/><path class="a" d="M45.616,228.774H38.746a.68.68,0,1,0,0,1.359h6.871a.68.68,0,1,0,0-1.359Z" transform="translate(-34.624 -212.993)"/><path class="a" d="M45.616,270.9H38.746a.68.68,0,0,0,0,1.359h6.871a.68.68,0,1,0,0-1.359Z" transform="translate(-34.624 -251.306)"/><path class="a" d="M442.693,345.639h1.218a.68.68,0,1,0,0-1.359h-1.218a.68.68,0,1,0,0,1.359Z" transform="translate(-402.048 -318.055)"/><path class="a" d="M199.458,178.057a1.507,1.507,0,0,0-1.505,1.505v3.7a1.507,1.507,0,0,0,1.505,1.505h4.277a1.507,1.507,0,0,0,1.505-1.505v-3.7a1.507,1.507,0,0,0-1.505-1.505Zm4.423,1.505v3.7a.147.147,0,0,1-.146.146h-4.277a.147.147,0,0,1-.146-.146v-3.7a.147.147,0,0,1,.146-.146h4.277A.147.147,0,0,1,203.882,179.562Z" transform="translate(-180.055 -166.861)"/><path class="a" d="M299.048,183.263v-3.7a1.507,1.507,0,0,0-1.505-1.505h-4.277a1.507,1.507,0,0,0-1.505,1.505v3.7a1.507,1.507,0,0,0,1.505,1.505h4.277A1.507,1.507,0,0,0,299.048,183.263Zm-5.929,0v-3.7a.147.147,0,0,1,.146-.146h4.277a.147.147,0,0,1,.146.146v3.7a.147.147,0,0,1-.146.146h-4.277A.147.147,0,0,1,293.119,183.263Z" transform="translate(-265.38 -166.861)"/><path class="a" d="M387.072,184.769h4.277a1.507,1.507,0,0,0,1.505-1.505v-3.7a1.507,1.507,0,0,0-1.505-1.505h-4.277a1.507,1.507,0,0,0-1.505,1.505v3.7A1.507,1.507,0,0,0,387.072,184.769Zm-.146-5.206a.146.146,0,0,1,.146-.146h4.277a.147.147,0,0,1,.146.146v3.7a.147.147,0,0,1-.146.146h-4.277a.147.147,0,0,1-.146-.146Z" transform="translate(-350.706 -166.861)"/><circle class="a" cx="0.755" cy="0.755" r="0.755" transform="translate(28.92 8.984) rotate(-45)"/><path class="a" d="M317.636,116.71a.68.68,0,0,0-.3-.914,2.548,2.548,0,0,0-2.364.033.679.679,0,1,0,.649,1.194,1.189,1.189,0,0,1,1.1-.015A.68.68,0,0,0,317.636,116.71Z" transform="translate(-286.172 -109.98)"/><path class="a" d="M300.412,91.615a.68.68,0,0,0,.353-1.261,5.98,5.98,0,0,0-6.181,0,.68.68,0,0,0,.7,1.163,4.621,4.621,0,0,1,4.773,0A.676.676,0,0,0,300.412,91.615Z" transform="translate(-267.651 -86.305)"/><path class="a" d="M312.628,271.064l-.9.779-.9-.779a.68.68,0,0,0-.892,1.025l1.341,1.168a.68.68,0,0,0,.892,0l1.341-1.168a.68.68,0,1,0-.892-1.025Z" transform="translate(-281.709 -251.307)"/><path class="a" d="M45.215,54.231H36.839a.68.68,0,0,0,0,1.359h8.095V78.177H15.113V55.59H33.656a.68.68,0,1,0,0-1.359H1.077A1.079,1.079,0,0,0,0,55.309V83.017a1.079,1.079,0,0,0,1.077,1.077H7.632L4.617,87.213a2.067,2.067,0,0,0,1.486,3.5,2.075,2.075,0,0,0,1.291-.452l2.34-1.871a.68.68,0,1,0-.849-1.062L6.545,89.2a.71.71,0,0,1-.442.155.708.708,0,0,1-.509-1.2l3.929-4.063h3.413L11.33,85.377a.68.68,0,1,0,.849,1.062l2.933-2.345H31.18l7.718,6.17a2.074,2.074,0,0,0,1.291.453,2.067,2.067,0,0,0,1.486-3.5L38.66,84.094h6.555a1.079,1.079,0,0,0,1.077-1.077V55.309a1.079,1.079,0,0,0-1.077-1.077ZM1.359,55.59h12.4V78.177H1.359ZM40.7,88.157a.708.708,0,0,1-.509,1.2.71.71,0,0,1-.442-.155l-6.39-5.109H36.77Zm4.235-5.422H1.359v-3.2H44.934Z" transform="translate(0 -54.231)"/></g></svg>