<svg xmlns="http://www.w3.org/2000/svg" width="41.77" height="38.289" viewBox="0 0 41.77 38.289"><defs><style>.a{fill:#9c115e;}</style></defs><g transform="translate(0 0)"><path class="a" d="M41.073,51.331H40.3a4.859,4.859,0,0,0-.905-7.658,4.869,4.869,0,0,0-2.5-9.05H30.631V29.75a.7.7,0,0,0-.8-.688L21.581,30.33v-.65a3.487,3.487,0,0,0,2.785-3.411c0-3.038-2.866-5.94-2.989-6.061a.7.7,0,0,0-.984,0c-.123.122-2.989,3.023-2.989,6.061a3.487,3.487,0,0,0,2.785,3.411v.865l-8.46,1.3a.7.7,0,0,0-.59.687V40.29a7.617,7.617,0,0,0-1.74-1.4.7.7,0,0,0-.7,0,7.692,7.692,0,0,0-3.759,5.629,7.556,7.556,0,0,0-1.462-.154,7.6,7.6,0,0,0-.919.06A.7.7,0,0,0,2,44.847a7.652,7.652,0,0,0,2.65,9.269H0v1.392H1.658l1.2,2.4a.7.7,0,0,0,.623.385H29.935a.7.7,0,0,0,.7-.7V55.508h4.443l1.2,2.4a.7.7,0,0,0,.623.385h2.785a.7.7,0,0,0,.7-.7V55.508h.7a.7.7,0,0,0,.7-.7V52.027A.7.7,0,0,0,41.073,51.331Zm-.7-3.481A3.485,3.485,0,0,1,36.9,51.331H24.366a3.481,3.481,0,1,1,0-6.962h9.05a2.088,2.088,0,1,1,0,4.177H26.454a.7.7,0,1,1,0-1.392h4.873V45.761H26.454a2.088,2.088,0,1,0,0,4.177h6.962A3.485,3.485,0,0,0,36.9,46.458a3.445,3.445,0,0,0-.714-2.088H36.9A3.485,3.485,0,0,1,40.377,47.85ZM34.808,36.015a2.088,2.088,0,1,1,0,4.177H27.846a.7.7,0,1,1,0-1.392h4.873V37.408H27.846a2.088,2.088,0,1,0,0,4.177h6.962A3.485,3.485,0,0,0,38.289,38.1a3.448,3.448,0,0,0-.643-2,3.481,3.481,0,0,1-.749,6.875H27.15a3.481,3.481,0,1,1,0-6.962ZM18.8,26.269c0-1.78,1.34-3.631,2.088-4.525.749.893,2.088,2.741,2.088,4.525a2.088,2.088,0,0,1-1.392,1.96V26.965H20.189v1.264A2.088,2.088,0,0,1,18.8,26.269ZM9.05,40.316a6.287,6.287,0,0,1,2.746,4.6,7.675,7.675,0,0,0-2.74,1.865A7.7,7.7,0,0,0,6.3,44.926,6.286,6.286,0,0,1,9.05,40.316Zm3.492,5.8a6.268,6.268,0,0,1,2.077-.354c.109,0,.223,0,.343.012A6.265,6.265,0,0,1,9.05,54.115c-.109,0-.223,0-.343-.012A6.265,6.265,0,0,1,12.542,46.116ZM2.785,47.85a6.228,6.228,0,0,1,.354-2.077c.119-.008.233-.012.343-.012a6.2,6.2,0,0,1,4.7,2.135,7.539,7.539,0,0,0-1,5.936A6.265,6.265,0,0,1,2.785,47.85Zm11.4,9.05H3.911l-.7-1.392h11.67Zm6.7,0H15.746l.7-1.392H18.1V54.115H13.439A7.647,7.647,0,0,0,16.1,44.847a.7.7,0,0,0-.557-.418,7.337,7.337,0,0,0-2.379.084,7.625,7.625,0,0,0-.673-2.233h.045V33.132l16.708-2.57v4.061H27.15a4.867,4.867,0,0,0-3.362,8.391,4.865,4.865,0,0,0-2.826,8.316h-.773a.7.7,0,0,0-.7.7v2.785a.7.7,0,0,0,.7.7h.7Zm3.051,0H22.277V55.508h2.354Zm5.3,0H25.492l.7-1.392h3.051Zm9.746,0H37.327l-.7-1.392h2.354Zm1.392-2.785H20.885V52.723H40.377Z" transform="translate(0 -20.004)"/></g><g transform="translate(14.35 14.956)"><g transform="translate(0 0)"><rect class="a" width="1" height="5" transform="translate(-0.08 0.252)"/></g></g><g transform="translate(14.35 21.604)"><g transform="translate(0 0)"><rect class="a" width="1" height="2" transform="translate(-0.08 -0.395)"/></g></g></svg>