<svg xmlns="http://www.w3.org/2000/svg" width="38.757" height="36.173" viewBox="0 0 38.757 36.173"><defs><style>.a{fill:#9c115e;}</style></defs><g transform="translate(0)"><path class="a" d="M38.757,12.522A4.527,4.527,0,0,0,34.235,8H14.857a4.248,4.248,0,0,0-1.173.161c-.242.058-6.622,2.464-10.4,3.892H3.274A4.4,4.4,0,0,0,1.328,13.2,4.469,4.469,0,0,0,0,16.4a4.518,4.518,0,0,0,2.2,3.876,4.511,4.511,0,0,0,0,7.751,4.517,4.517,0,0,0,2.317,8.4H23.9a4.48,4.48,0,0,0,1.931-.439h.014l10.393-3.9a4.511,4.511,0,0,0,.312-7.924,4.1,4.1,0,0,0,.878-.683,4.469,4.469,0,0,0,1.329-3.2,4.533,4.533,0,0,0-2.2-3.872,4.12,4.12,0,0,0,.875-.681,4.469,4.469,0,0,0,1.328-3.2ZM14.039,9.4a2.993,2.993,0,0,1,.817-.11H34.235a3.234,3.234,0,0,1,3.23,3.23,3.186,3.186,0,0,1-.948,2.282,2.778,2.778,0,0,1-.76.559c-.035.019-.065.036-.1.053-.871.323-2.405.9-4.783,1.792l-2.871,1.078a4.518,4.518,0,0,0-4.106-6.41H7.41c3.216-1.211,6.366-2.39,6.629-2.473ZM1.292,16.4a3.189,3.189,0,0,1,.951-2.285,3.11,3.11,0,0,1,1.418-.824l.054-.018a3.146,3.146,0,0,1,.807-.1H23.9a3.23,3.23,0,0,1,1.479,6.1.605.605,0,0,0-.056.025,3.148,3.148,0,0,1-1.423.333H4.521a3.234,3.234,0,0,1-3.23-3.23Zm0,7.751a3.236,3.236,0,0,1,3.23-3.23H23.9a3.23,3.23,0,0,1,1.479,6.1.606.606,0,0,0-.056.025,3.148,3.148,0,0,1-1.423.333H4.521a3.234,3.234,0,0,1-3.23-3.23ZM4.521,35.13a3.23,3.23,0,1,1,0-6.459H23.9a3.23,3.23,0,1,1,0,6.459Zm32.943-7.105a3.188,3.188,0,0,1-.947,2.282,3.241,3.241,0,0,1-.791.588L28,33.791a4.5,4.5,0,0,0-1.719-5.727l8.526-3.2A3.221,3.221,0,0,1,37.465,28.024Zm0-7.751a3.186,3.186,0,0,1-.948,2.282,2.778,2.778,0,0,1-.76.559l-.1.054-7.653,2.87a4.506,4.506,0,0,0-1.723-5.725l5.045-1.9c1.474-.554,2.619-.984,3.488-1.309A3.23,3.23,0,0,1,37.465,20.273Z" transform="translate(0 -2.832)"/><path class="a" d="M26.962,20.646A.646.646,0,0,0,26.316,20H5.646a.646.646,0,0,0,0,1.292h20.67A.646.646,0,0,0,26.962,20.646Z" transform="translate(-1.77 -7.081)"/><path class="a" d="M26.962,32.646A.646.646,0,0,0,26.316,32H5.646a.646.646,0,1,0,0,1.292h20.67A.646.646,0,0,0,26.962,32.646Z" transform="translate(-1.77 -11.33)"/><path class="a" d="M26.316,44H5.646a.646.646,0,1,0,0,1.292h20.67a.646.646,0,0,0,0-1.292Z" transform="translate(-1.77 -15.578)"/><path class="a" d="M9.646,0A.646.646,0,0,0,9,.646V1.938a.646.646,0,0,0,1.292,0V.646A.646.646,0,0,0,9.646,0Z" transform="translate(-3.186)"/><path class="a" d="M9,7.938a.646.646,0,0,0,1.292,0V6.646A.646.646,0,0,0,9,6.646Z" transform="translate(-3.186 -2.124)"/><path class="a" d="M6.938,4H5.646a.646.646,0,0,0,0,1.292H6.938A.646.646,0,1,0,6.938,4Z" transform="translate(-1.77 -1.416)"/><path class="a" d="M11.646,5.292h1.292a.646.646,0,1,0,0-1.292H11.646a.646.646,0,0,0,0,1.292Z" transform="translate(-3.894 -1.416)"/><path class="a" d="M57.607,52.694a.646.646,0,0,0-.913.913l.969.969a.646.646,0,0,0,.913-.913Z" transform="translate(-20.008 -18.592)"/><path class="a" d="M53.163,50.076a.646.646,0,0,0,.913-.913l-.969-.969a.646.646,0,0,0-.913.913Z" transform="translate(-18.415 -16.999)"/><path class="a" d="M52.189,54.576a.646.646,0,0,0,.913,0l.969-.969a.646.646,0,0,0-.913-.913l-.969.969A.646.646,0,0,0,52.189,54.576Z" transform="translate(-18.411 -18.592)"/><path class="a" d="M57.654,48.194l-.969.969a.646.646,0,1,0,.913.913l.969-.969a.646.646,0,0,0-.913-.913Z" transform="translate(-19.999 -16.999)"/></g></svg>