<svg xmlns="http://www.w3.org/2000/svg" width="29.424" height="45.268" viewBox="0 0 29.424 45.268"><defs><style>.a{fill:#9c115e;}</style></defs><path class="a" d="M86.978,42.454a.911.911,0,0,0,.911.911h1.457V44.39a.911.911,0,0,0,1.822,0V43.365h21.045V44.39a.911.911,0,0,0,1.822,0V43.365h1.457a.911.911,0,0,0,.911-.911V.911A.911.911,0,0,0,115.491,0h-27.6a.911.911,0,0,0-.911.911ZM114.58,31.1v4.3H88.8V31.1Zm0-1.822H102.6v-15.7a.911.911,0,0,0-1.822,0v15.7H88.8V1.822h11.979V6.134a.911.911,0,0,0,1.822,0V1.822H114.58V29.28Zm0,12.263H88.8V37.226H114.58Z" transform="translate(-86.978)"/><path class="a" d="M240.27,355.673a.91.91,0,1,0-.493,1.189A.918.918,0,0,0,240.27,355.673Z" transform="translate(-224.717 -322.767)"/><path class="a" d="M238.587,423.718a.91.91,0,1,0,.349-1.113A.919.919,0,0,0,238.587,423.718Z" transform="translate(-224.716 -383.985)"/><path class="a" d="M279.779,176.207a.911.911,0,0,0,.911-.911V172.8a.911.911,0,0,0-1.822,0V175.3A.911.911,0,0,0,279.779,176.207Z" transform="translate(-261.39 -156.267)"/><path class="a" d="M198.284,171.563a.911.911,0,0,0-.911.911v2.493a.911.911,0,0,0,1.822,0v-2.493A.911.911,0,0,0,198.284,171.563Z" transform="translate(-187.318 -155.937)"/><path class="a" d="M238.594,98.959a.91.91,0,1,0,.493-1.19A.919.919,0,0,0,238.594,98.959Z" transform="translate(-224.723 -88.802)"/></svg>