<svg xmlns="http://www.w3.org/2000/svg" width="41.953" height="43.399" viewBox="0 0 41.953 43.399"><defs><style>.a{fill:#9c115e;}</style></defs><path class="a" d="M28.288,59.4H44.253V57.953H28.288a2.845,2.845,0,0,1-2.842-2.842v-.775H33.4V52.889H25.447v-32.6a2.845,2.845,0,0,1,2.842-2.842h2.945v2.234a3.556,3.556,0,0,0,3.552,3.552H47.934a3.556,3.556,0,0,0,3.552-3.552V17.447h2.945a2.845,2.845,0,0,1,2.842,2.842v3.668H50.04V25.4h7.233V43.486h1.447v-23.2A4.293,4.293,0,0,0,54.431,16H28.288A4.293,4.293,0,0,0,24,20.288V55.111A4.293,4.293,0,0,0,28.288,59.4ZM50.04,19.681a2.108,2.108,0,0,1-2.106,2.106H34.786a2.108,2.108,0,0,1-2.106-2.106V17.447H50.04Z" transform="translate(-24 -16)"/><path class="a" d="M124.283,170.152a10.125,10.125,0,1,0-5.787,9.15v.131a2.284,2.284,0,0,0,.624,1.569,2.284,2.284,0,0,0-.624,1.569v1.2a2.284,2.284,0,0,0,.624,1.569,2.284,2.284,0,0,0-.624,1.569v1.2a2.3,2.3,0,0,0,2.292,2.292h15.668a2.3,2.3,0,0,0,2.292-2.292v-1.2a2.284,2.284,0,0,0-.623-1.569,2.284,2.284,0,0,0,.623-1.569v-1.2a2.284,2.284,0,0,0-.623-1.569,2.284,2.284,0,0,0,.623-1.569v-1.2a2.3,2.3,0,0,0-2.292-2.292H122.468A10.073,10.073,0,0,0,124.283,170.152Zm-10.126-8.68a8.69,8.69,0,0,1,8.67,8.276l-4.91,2.946a1.895,1.895,0,0,1-2.315-2.965l1.96-1.96a.723.723,0,0,0-.11-1.113,5.829,5.829,0,0,0-5.267-.606,11.326,11.326,0,0,0-5.6,4.577l-.9,1.436a8.682,8.682,0,0,1,8.467-10.591Zm-7.863,12.354,1.52-2.431a9.871,9.871,0,0,1,4.878-3.989,4.379,4.379,0,0,1,3.154.034l-1.267,1.268a3.342,3.342,0,0,0,4.082,5.228l4.071-2.443a8.623,8.623,0,0,1-2.115,4.454,2.3,2.3,0,0,0-2.038,1.675,8.68,8.68,0,0,1-12.286-3.795Zm31.009,8.745v1.2a.847.847,0,0,1-.846.846H120.789a.847.847,0,0,1-.846-.846v-1.2a.847.847,0,0,1,.846-.846h15.668A.847.847,0,0,1,137.3,182.571Zm0,5.542a.847.847,0,0,1-.846.846H120.789a.847.847,0,0,1-.846-.846v-1.2a.847.847,0,0,1,.846-.846h15.668a.847.847,0,0,1,.846.846Zm0-9.882v1.2a.847.847,0,0,1-.846.846H120.789a.847.847,0,0,1-.846-.846v-1.2a.847.847,0,0,1,.846-.846h15.668A.847.847,0,0,1,137.3,178.231Z" transform="translate(-96.797 -147.006)"/><path class="a" d="M97.205,145.615a13.005,13.005,0,1,0-9.123,8.062l-.339-1.406a11.562,11.562,0,1,1,8.108-7.166Z" transform="translate(-67.66 -117.873)"/><rect class="a" width="3" transform="translate(11.953 26.941)"/><rect class="a" width="1" height="2" transform="translate(14.953 27.941)"/><rect class="a" width="2" height="1" transform="translate(9.953 2.941)"/><rect class="a" height="1" transform="translate(14.953 2.941)"/></svg>