<svg xmlns="http://www.w3.org/2000/svg" width="48.731" height="44.055" viewBox="0 0 48.731 44.055"><defs><style>.a{fill:#9c115e;}</style></defs><g transform="translate(0 0)"><path class="a" d="M386.187,417.142a.714.714,0,1,0,0,1.429h2.381a.714.714,0,1,0,0-1.429Z" transform="translate(-348.784 -379.777)"/><path class="a" d="M386.187,308.984h2.381a.714.714,0,0,0,0-1.429h-2.381a.714.714,0,0,0,0,1.429Z" transform="translate(-348.784 -280.62)"/><path class="a" d="M46.963,24.564H27.819a1.77,1.77,0,0,0-1.768,1.768v3.444a.714.714,0,0,0,1.429,0V26.332a.34.34,0,0,1,.34-.34H46.963a.34.34,0,0,1,.34.34v9.886H27.479v-3.1a.714.714,0,1,0-1.429,0V38.85a1.77,1.77,0,0,0,1.768,1.768h6.487l-.493,2.292H25.136a5.28,5.28,0,0,0-1.379-3.223,5.2,5.2,0,0,0-3.871-1.7H12.965a5.2,5.2,0,0,0-3.871,1.7,5.281,5.281,0,0,0-1.379,3.223H1.49A1.492,1.492,0,0,0,0,44.4v1.776a1.492,1.492,0,0,0,1.49,1.49h.92V67.19a1.431,1.431,0,0,0,1.429,1.429H5.345A1.431,1.431,0,0,0,6.774,67.19V47.666H8.567l.941,4.172a3.508,3.508,0,0,0,3.44,2.751h.871l.135,1.12H11.676a2.938,2.938,0,0,0-2.934,2.934,1.733,1.733,0,0,0,1.731,1.731h5.27V65.16H14.215A4.029,4.029,0,0,0,10.5,67.627a.714.714,0,1,0,1.316.556,2.6,2.6,0,0,1,2.4-1.594h4.514a2.6,2.6,0,0,1,2.4,1.594.714.714,0,1,0,1.316-.556,4.029,4.029,0,0,0-3.719-2.467H17.172V60.374h5.206a1.733,1.733,0,0,0,1.731-1.731,2.938,2.938,0,0,0-2.934-2.934H18.9l.135-1.12H19.9a3.508,3.508,0,0,0,3.44-2.751l.941-4.172h6.686v19.4a1.551,1.551,0,0,0,1.549,1.549H44.667a1.551,1.551,0,0,0,1.549-1.549v-2.76a.714.714,0,1,0-1.429,0v2.76a.121.121,0,0,1-.121.121H32.52a.121.121,0,0,1-.121-.121V58.1H44.788v2.878a.714.714,0,0,0,1.429,0V47.666H47.2a1.492,1.492,0,0,0,1.49-1.49V44.4a1.492,1.492,0,0,0-1.49-1.49H40.97l-.493-2.292h6.487a1.77,1.77,0,0,0,1.768-1.768V26.332a1.77,1.77,0,0,0-1.768-1.768ZM5.345,67.19H3.839V47.666H5.345ZM1.49,46.237a.061.061,0,0,1-.061-.061V44.4a.061.061,0,0,1,.061-.061H7.817c.033.156.228,1.015.427,1.9ZM22.68,58.643a.3.3,0,0,1-.3.3h-11.9a.3.3,0,0,1-.3-.3,1.507,1.507,0,0,1,1.506-1.506h9.5A1.507,1.507,0,0,1,22.68,58.643Zm-5.223-2.934H15.394l-.135-1.12h2.333Zm4.492-4.185A2.087,2.087,0,0,1,19.9,53.16H12.949A2.087,2.087,0,0,1,10.9,51.523l-1.676-7.43a3.836,3.836,0,0,1,.92-3.441,3.786,3.786,0,0,1,2.819-1.236h6.922a3.786,3.786,0,0,1,2.819,1.236,3.838,3.838,0,0,1,.92,3.441l-.612,2.713v0Zm22.839,5.144H32.4v-9H44.788ZM47.266,44.4v1.776a.061.061,0,0,1-.061.061h-22.6c.255-1.133.388-1.712.427-1.9H47.2A.061.061,0,0,1,47.266,44.4Zm-7.758-1.49H35.273l.493-2.292h3.248Zm7.455-3.72H27.819a.34.34,0,0,1-.34-.34v-1.2H47.3v1.2A.34.34,0,0,1,46.963,39.189Z" transform="translate(0 -24.564)"/></g></svg>